<svg xmlns="http://www.w3.org/2000/svg" viewBox="0 0 100 100">
  <defs>
    <linearGradient id="collaborationGrad" x1="0%" y1="0%" x2="100%" y2="100%">
      <stop offset="0%" style="stop-color:#007acc;stop-opacity:1" />
      <stop offset="100%" style="stop-color:#00aaff;stop-opacity:1" />
    </linearGradient>
  </defs>
  
  <!-- Collaboration/Puzzle pieces icon -->
  <path d="M 35 35 L 65 35 L 65 50 C 65 50 75 50 75 40 C 75 30 65 30 65 30 L 65 20 C 65 20 75 20 75 10 C 75 0 65 0 65 0 L 35 0 C 35 0 25 0 25 10 C 25 20 35 20 35 20 L 35 30 C 35 30 25 30 25 40 C 25 50 35 50 35 50 Z" fill="url(#collaborationGrad)" transform="translate(10, 25)"/>
  
  <path d="M 50 50 L 80 50 L 80 65 C 80 65 90 65 90 55 C 90 45 80 45 80 45 L 80 35 C 80 35 90 35 90 25 C 90 15 80 15 80 15 L 50 15 C 50 15 40 15 40 25 C 40 35 50 35 50 35 L 50 45 C 50 45 40 45 40 55 C 40 65 50 65 50 65 Z" fill="url(#collaborationGrad)" opacity="0.7" transform="translate(-15, 10)"/>
</svg>